<?xml version="1.0" encoding="utf-8"?>
<!-- Generator: Adobe Illustrator 17.0.0, SVG Export Plug-In . SVG Version: 6.00 Build 0)  -->
<!DOCTYPE svg PUBLIC "-//W3C//DTD SVG 1.1//EN" "http://www.w3.org/Graphics/SVG/1.1/DTD/svg11.dtd">
<svg version="1.1" id="Layer_1" xmlns="http://www.w3.org/2000/svg" xmlns:xlink="http://www.w3.org/1999/xlink" x="0px" y="0px"
	 width="24px" height="24px" viewBox="0 0 24 24" enable-background="new 0 0 24 24" xml:space="preserve">
<path fill="#FFFFFF" d="M23.809,21.646l-6.205-6.205c1.167-1.605,1.857-3.579,1.857-5.711C19.461,4.365,15.096,0,9.73,0
	C4.365,0,0,4.365,0,9.73c0,5.366,4.365,9.73,9.73,9.73c2.034,0,3.923-0.627,5.487-1.698L21.455,24
	C21.455,24,23.809,21.646,23.809,21.646z M2.854,9.73c0-3.792,3.085-6.877,6.877-6.877s6.877,3.085,6.877,6.877
	s-3.085,6.877-6.877,6.877C5.938,16.607,2.854,13.522,2.854,9.73z"/>
</svg>
